<svg width="733" height="733" viewBox="0 0 733 733" fill="none" xmlns="http://www.w3.org/2000/svg">
<g filter="url(#filter0_d_2100_574)">
<path d="M366.055 70.0556L575.359 156.752L662.055 366.055L575.359 575.359L366.055 662.055L156.752 575.359L70.0552 366.055L156.752 156.752L366.055 70.0556Z" stroke="#D912F7" stroke-width="1.33333" shape-rendering="crispEdges"/>
</g>
<g filter="url(#filter1_d_2100_574)">
<path d="M366.055 40.7216L596.1 136.01L691.388 366.055L596.1 596.1L366.055 691.388L136.01 596.1L40.7217 366.055L136.01 136.01L366.055 40.7216Z" stroke="#D912F7" stroke-width="1.33333" shape-rendering="crispEdges"/>
</g>
<g filter="url(#filter2_d_2100_574)">
<path d="M252.722 351.055H223.14C220.311 351.055 217.598 349.931 215.598 347.931L169.846 302.179C167.846 300.179 166.722 297.466 166.722 294.637L166.722 235.722M252.722 335.055H227.14C224.311 335.055 221.598 333.931 219.598 331.931L185.846 298.179C183.846 296.179 182.722 293.466 182.722 290.637L182.722 235.722" stroke="#D912F7" stroke-width="1.33333"/>
</g>
<g filter="url(#filter3_d_2100_574)">
<path d="M252.722 388.387H223.14C220.311 388.387 217.598 389.511 215.598 391.511L169.846 437.263C167.846 439.263 166.722 441.976 166.722 444.805L166.722 503.72M252.722 404.387H227.14C224.311 404.387 221.598 405.511 219.598 407.511L185.846 441.263C183.846 443.263 182.722 445.976 182.722 448.805L182.722 503.72" stroke="#D912F7" stroke-width="1.33333"/>
</g>
<g filter="url(#filter4_d_2100_574)">
<path d="M388.722 266.388L388.722 242.14C388.722 239.311 389.845 236.598 391.846 234.597L437.597 188.846C439.598 186.846 442.311 185.722 445.14 185.722L481.388 185.722M404.722 266.388L404.722 246.14C404.722 243.311 405.845 240.598 407.846 238.597L441.597 204.846C443.598 202.845 446.311 201.722 449.14 201.722L481.388 201.722" stroke="#D912F7" stroke-width="1.33333"/>
</g>
<g filter="url(#filter5_d_2100_574)">
<path d="M388.722 464.388L388.722 488.636C388.722 491.465 389.845 494.178 391.846 496.179L437.597 541.93C439.598 543.93 442.311 545.054 445.14 545.054L481.388 545.054M404.722 464.388L404.722 484.636C404.722 487.465 405.845 490.178 407.846 492.179L441.597 525.93C443.598 527.931 446.311 529.054 449.14 529.054L481.388 529.054" stroke="#D912F7" stroke-width="1.33333"/>
</g>
<g filter="url(#filter6_d_2100_574)">
<path d="M340.055 266.388L340.055 242.14C340.055 239.311 338.931 236.598 336.931 234.597L291.18 188.846C289.179 186.846 286.466 185.722 283.637 185.722L247.389 185.722M324.055 266.388L324.055 246.14C324.055 243.311 322.931 240.598 320.931 238.597L287.179 204.846C285.179 202.845 282.466 201.722 279.637 201.722L247.389 201.722" stroke="#D912F7" stroke-width="1.33333"/>
</g>
<g filter="url(#filter7_d_2100_574)">
<path d="M340.055 464.388L340.055 488.636C340.055 491.465 338.931 494.178 336.931 496.179L291.18 541.93C289.179 543.93 286.466 545.054 283.637 545.054L247.389 545.054M324.055 464.388L324.055 484.636C324.055 487.465 322.931 490.178 320.931 492.179L287.179 525.93C285.179 527.931 282.466 529.054 279.637 529.054L247.389 529.054" stroke="#D912F7" stroke-width="1.33333"/>
</g>
<g filter="url(#filter8_d_2100_574)">
<path d="M471.387 351.055H507.636C510.465 351.055 513.178 349.931 515.178 347.931L560.93 302.179C562.93 300.179 564.054 297.466 564.054 294.637L564.054 235.721M471.388 335.055H503.636C506.465 335.055 509.178 333.931 511.178 331.931L544.93 298.179C546.93 296.179 548.054 293.465 548.054 290.636L548.054 235.721" stroke="#D912F7" stroke-width="1.33333"/>
</g>
<g filter="url(#filter9_d_2100_574)">
<path d="M471.388 388.387H500.97C503.799 388.387 506.512 389.511 508.512 391.511L554.264 437.263C556.264 439.263 557.388 441.976 557.388 444.805L557.388 503.72M471.388 404.387H496.97C499.799 404.387 502.512 405.511 504.512 407.511L538.264 441.263C540.264 443.263 541.388 445.976 541.388 448.805L541.388 503.72" stroke="#D912F7" stroke-width="1.33333"/>
</g>
<defs>
<filter id="filter0_d_2100_574" x="29.3335" y="29.334" width="673.443" height="673.443" filterUnits="userSpaceOnUse" color-interpolation-filters="sRGB">
<feFlood flood-opacity="0" result="BackgroundImageFix"/>
<feColorMatrix in="SourceAlpha" type="matrix" values="0 0 0 0 0 0 0 0 0 0 0 0 0 0 0 0 0 0 127 0" result="hardAlpha"/>
<feOffset/>
<feGaussianBlur stdDeviation="20"/>
<feComposite in2="hardAlpha" operator="out"/>
<feColorMatrix type="matrix" values="0 0 0 0 0.85098 0 0 0 0 0.0705882 0 0 0 0 0.968627 0 0 0 0.4 0"/>
<feBlend mode="lighten" in2="BackgroundImageFix" result="effect1_dropShadow_2100_574"/>
<feBlend mode="normal" in="SourceGraphic" in2="effect1_dropShadow_2100_574" result="shape"/>
</filter>
<filter id="filter1_d_2100_574" x="1.52588e-05" y="1.52588e-05" width="732.11" height="732.11" filterUnits="userSpaceOnUse" color-interpolation-filters="sRGB">
<feFlood flood-opacity="0" result="BackgroundImageFix"/>
<feColorMatrix in="SourceAlpha" type="matrix" values="0 0 0 0 0 0 0 0 0 0 0 0 0 0 0 0 0 0 127 0" result="hardAlpha"/>
<feOffset/>
<feGaussianBlur stdDeviation="20"/>
<feComposite in2="hardAlpha" operator="out"/>
<feColorMatrix type="matrix" values="0 0 0 0 0.85098 0 0 0 0 0.0705882 0 0 0 0 0.968627 0 0 0 0.4 0"/>
<feBlend mode="lighten" in2="BackgroundImageFix" result="effect1_dropShadow_2100_574"/>
<feBlend mode="normal" in="SourceGraphic" in2="effect1_dropShadow_2100_574" result="shape"/>
</filter>
<filter id="filter2_d_2100_574" x="126.055" y="195.722" width="166.667" height="196" filterUnits="userSpaceOnUse" color-interpolation-filters="sRGB">
<feFlood flood-opacity="0" result="BackgroundImageFix"/>
<feColorMatrix in="SourceAlpha" type="matrix" values="0 0 0 0 0 0 0 0 0 0 0 0 0 0 0 0 0 0 127 0" result="hardAlpha"/>
<feOffset/>
<feGaussianBlur stdDeviation="20"/>
<feComposite in2="hardAlpha" operator="out"/>
<feColorMatrix type="matrix" values="0 0 0 0 0.85098 0 0 0 0 0.0705882 0 0 0 0 0.968627 0 0 0 0.4 0"/>
<feBlend mode="lighten" in2="BackgroundImageFix" result="effect1_dropShadow_2100_574"/>
<feBlend mode="normal" in="SourceGraphic" in2="effect1_dropShadow_2100_574" result="shape"/>
</filter>
<filter id="filter3_d_2100_574" x="126.055" y="347.72" width="166.667" height="196" filterUnits="userSpaceOnUse" color-interpolation-filters="sRGB">
<feFlood flood-opacity="0" result="BackgroundImageFix"/>
<feColorMatrix in="SourceAlpha" type="matrix" values="0 0 0 0 0 0 0 0 0 0 0 0 0 0 0 0 0 0 127 0" result="hardAlpha"/>
<feOffset/>
<feGaussianBlur stdDeviation="20"/>
<feComposite in2="hardAlpha" operator="out"/>
<feColorMatrix type="matrix" values="0 0 0 0 0.85098 0 0 0 0 0.0705882 0 0 0 0 0.968627 0 0 0 0.4 0"/>
<feBlend mode="lighten" in2="BackgroundImageFix" result="effect1_dropShadow_2100_574"/>
<feBlend mode="normal" in="SourceGraphic" in2="effect1_dropShadow_2100_574" result="shape"/>
</filter>
<filter id="filter4_d_2100_574" x="348.055" y="145.055" width="173.333" height="161.333" filterUnits="userSpaceOnUse" color-interpolation-filters="sRGB">
<feFlood flood-opacity="0" result="BackgroundImageFix"/>
<feColorMatrix in="SourceAlpha" type="matrix" values="0 0 0 0 0 0 0 0 0 0 0 0 0 0 0 0 0 0 127 0" result="hardAlpha"/>
<feOffset/>
<feGaussianBlur stdDeviation="20"/>
<feComposite in2="hardAlpha" operator="out"/>
<feColorMatrix type="matrix" values="0 0 0 0 0.85098 0 0 0 0 0.0705882 0 0 0 0 0.968627 0 0 0 0.4 0"/>
<feBlend mode="lighten" in2="BackgroundImageFix" result="effect1_dropShadow_2100_574"/>
<feBlend mode="normal" in="SourceGraphic" in2="effect1_dropShadow_2100_574" result="shape"/>
</filter>
<filter id="filter5_d_2100_574" x="348.055" y="424.388" width="173.333" height="161.333" filterUnits="userSpaceOnUse" color-interpolation-filters="sRGB">
<feFlood flood-opacity="0" result="BackgroundImageFix"/>
<feColorMatrix in="SourceAlpha" type="matrix" values="0 0 0 0 0 0 0 0 0 0 0 0 0 0 0 0 0 0 127 0" result="hardAlpha"/>
<feOffset/>
<feGaussianBlur stdDeviation="20"/>
<feComposite in2="hardAlpha" operator="out"/>
<feColorMatrix type="matrix" values="0 0 0 0 0.85098 0 0 0 0 0.0705882 0 0 0 0 0.968627 0 0 0 0.4 0"/>
<feBlend mode="lighten" in2="BackgroundImageFix" result="effect1_dropShadow_2100_574"/>
<feBlend mode="normal" in="SourceGraphic" in2="effect1_dropShadow_2100_574" result="shape"/>
</filter>
<filter id="filter6_d_2100_574" x="207.389" y="145.055" width="173.333" height="161.333" filterUnits="userSpaceOnUse" color-interpolation-filters="sRGB">
<feFlood flood-opacity="0" result="BackgroundImageFix"/>
<feColorMatrix in="SourceAlpha" type="matrix" values="0 0 0 0 0 0 0 0 0 0 0 0 0 0 0 0 0 0 127 0" result="hardAlpha"/>
<feOffset/>
<feGaussianBlur stdDeviation="20"/>
<feComposite in2="hardAlpha" operator="out"/>
<feColorMatrix type="matrix" values="0 0 0 0 0.85098 0 0 0 0 0.0705882 0 0 0 0 0.968627 0 0 0 0.4 0"/>
<feBlend mode="lighten" in2="BackgroundImageFix" result="effect1_dropShadow_2100_574"/>
<feBlend mode="normal" in="SourceGraphic" in2="effect1_dropShadow_2100_574" result="shape"/>
</filter>
<filter id="filter7_d_2100_574" x="207.389" y="424.388" width="173.333" height="161.333" filterUnits="userSpaceOnUse" color-interpolation-filters="sRGB">
<feFlood flood-opacity="0" result="BackgroundImageFix"/>
<feColorMatrix in="SourceAlpha" type="matrix" values="0 0 0 0 0 0 0 0 0 0 0 0 0 0 0 0 0 0 127 0" result="hardAlpha"/>
<feOffset/>
<feGaussianBlur stdDeviation="20"/>
<feComposite in2="hardAlpha" operator="out"/>
<feColorMatrix type="matrix" values="0 0 0 0 0.85098 0 0 0 0 0.0705882 0 0 0 0 0.968627 0 0 0 0.4 0"/>
<feBlend mode="lighten" in2="BackgroundImageFix" result="effect1_dropShadow_2100_574"/>
<feBlend mode="normal" in="SourceGraphic" in2="effect1_dropShadow_2100_574" result="shape"/>
</filter>
<filter id="filter8_d_2100_574" x="431.388" y="195.722" width="173.333" height="196" filterUnits="userSpaceOnUse" color-interpolation-filters="sRGB">
<feFlood flood-opacity="0" result="BackgroundImageFix"/>
<feColorMatrix in="SourceAlpha" type="matrix" values="0 0 0 0 0 0 0 0 0 0 0 0 0 0 0 0 0 0 127 0" result="hardAlpha"/>
<feOffset/>
<feGaussianBlur stdDeviation="20"/>
<feComposite in2="hardAlpha" operator="out"/>
<feColorMatrix type="matrix" values="0 0 0 0 0.85098 0 0 0 0 0.0705882 0 0 0 0 0.968627 0 0 0 0.4 0"/>
<feBlend mode="lighten" in2="BackgroundImageFix" result="effect1_dropShadow_2100_574"/>
<feBlend mode="normal" in="SourceGraphic" in2="effect1_dropShadow_2100_574" result="shape"/>
</filter>
<filter id="filter9_d_2100_574" x="431.388" y="347.72" width="166.666" height="196" filterUnits="userSpaceOnUse" color-interpolation-filters="sRGB">
<feFlood flood-opacity="0" result="BackgroundImageFix"/>
<feColorMatrix in="SourceAlpha" type="matrix" values="0 0 0 0 0 0 0 0 0 0 0 0 0 0 0 0 0 0 127 0" result="hardAlpha"/>
<feOffset/>
<feGaussianBlur stdDeviation="20"/>
<feComposite in2="hardAlpha" operator="out"/>
<feColorMatrix type="matrix" values="0 0 0 0 0.85098 0 0 0 0 0.0705882 0 0 0 0 0.968627 0 0 0 0.4 0"/>
<feBlend mode="lighten" in2="BackgroundImageFix" result="effect1_dropShadow_2100_574"/>
<feBlend mode="normal" in="SourceGraphic" in2="effect1_dropShadow_2100_574" result="shape"/>
</filter>
</defs>
</svg>
