<svg width="1651" height="967" viewBox="0 0 1651 967" fill="none" xmlns="http://www.w3.org/2000/svg">
<path d="M1483.88 0.999756V965.104M1483.88 0.999756H1338.58C1327.54 0.999756 1318.59 9.95187 1318.59 20.9949V945.109C1318.59 956.152 1327.54 965.104 1338.58 965.104H1483.88M1483.88 0.999756H1629.18C1640.22 0.999756 1649.17 9.95187 1649.17 20.9949V945.109C1649.17 956.152 1640.22 965.104 1629.18 965.104H1483.88M1318.41 107.971L1649 107.971M1318.59 214.942L1649.17 214.942M1318.59 429.5H1649.17M1318.59 536.5H1649.17M1318.59 322H1649.17M1318.59 751.5H1649.17M1318.59 643.5H1649.17M1318.59 858H1649.17M296.972 939.874H398.921C520.232 939.874 631.106 871.262 685.233 762.696L827.509 477.321L684.403 182.735C630.878 72.551 519.136 2.60437 396.639 2.60437L296.972 2.60438M827.509 477.321L691.435 266.818C632.494 175.639 531.332 120.575 422.76 120.575H331.63M827.509 477.321L691.242 336.131C630.952 273.663 547.863 238.379 461.046 238.379H331.63M827.509 477.321L667.776 391.568C621.249 366.59 569.262 353.518 516.454 353.518H331.63M827.509 477.321L662.572 556.555C619.343 577.322 571.999 588.104 524.04 588.104H331.63M827.509 477.321L690.326 612.62C630.461 671.663 549.759 704.765 465.676 704.765H331.63M827.509 477.321L691.898 680.346C632.54 769.211 532.731 822.57 425.865 822.57L1.04424 822.57M827.509 477.321L331.63 477.154M1337.38 965.104H1255.41C1131.69 965.104 1019.06 893.77 966.183 781.921L822.177 477.321L965.386 181.591C1018.84 71.2124 1130.68 1.10413 1253.32 1.10413L1337.38 1.10413M822.177 477.321L958.822 258.547C1017.27 164.963 1119.83 108.104 1230.16 108.104H1337.38M822.177 477.321L957.238 323.749C1017.98 254.686 1105.5 215.104 1197.47 215.104H1337.38M822.177 477.321L971.789 376.622C1024.59 341.086 1086.78 322.104 1150.42 322.104H1337.38M822.177 477.321L1020.72 436.24C1042.04 431.828 1063.76 429.604 1085.54 429.604H1337.38M822.177 477.321L1013.6 526.53C1039.62 533.219 1066.38 536.604 1093.25 536.604H1337.38M822.177 477.321L968.988 583.18C1023.47 622.464 1088.93 643.604 1156.1 643.604H1337.38M822.177 477.321L956.906 637.565C1017.69 709.863 1107.32 751.604 1201.78 751.604H1337.38M822.177 477.321L959.404 703.91C1017.37 799.631 1121.15 858.104 1233.05 858.104H1337.38M166.293 2.60425L166.337 939.875M166.293 2.60425H20.9948C9.95185 2.60425 0.999748 11.5564 0.999748 22.5994L1.04423 919.88C1.04423 930.923 9.99634 939.875 21.0393 939.875H166.337M166.293 2.60425H311.59C322.633 2.60425 331.585 11.5564 331.585 22.5994L331.63 919.88C331.63 930.923 322.678 939.875 311.635 939.875H166.337M0.865723 120.741L331.452 120.741M1.04424 238.713L331.63 238.713M1.04412 477.321H331.63M1.04424 587.961H331.63M1.04423 353.351H331.63M1.04423 705.265H331.63" stroke="url(#paint0_radial_2102_588)" stroke-width="1.99951"/>
<defs>
<radialGradient id="paint0_radial_2102_588" cx="0" cy="0" r="1" gradientUnits="userSpaceOnUse" gradientTransform="translate(825.02 483.052) rotate(90) scale(482.052 824.154)">
<stop stop-color="#292639"/>
<stop offset="1" stop-color="#292639" stop-opacity="0"/>
</radialGradient>
</defs>
</svg>
